<svg width="16" height="16" viewBox="0 0 16 16" fill="none" xmlns="http://www.w3.org/2000/svg">
<g clip-path="url(#clip0_94_801)">
<g clip-path="url(#clip1_94_801)">
<path d="M0 0H16V16H0V0Z" fill="#0088FF"/>
</g>
<path d="M7.02102 12.465C7.39063 12.465 7.67033 12.3248 7.86012 12.0345L12.4552 4.99661C12.595 4.77636 12.655 4.58615 12.655 4.39594C12.655 3.89538 12.2754 3.53497 11.7559 3.53497C11.4063 3.53497 11.1965 3.66512 10.9768 3.99549L6.99105 10.3126L4.95324 7.7597C4.75346 7.51943 4.54368 7.40931 4.24401 7.40931C3.72456 7.40931 3.34497 7.77973 3.34497 8.2903C3.34497 8.51054 3.4149 8.71077 3.60469 8.93102L6.18192 12.0745C6.40169 12.3448 6.66141 12.465 7.01103 12.465H7.02102Z" fill="white"/>
</g>
<defs>
<clipPath id="clip0_94_801">
<path d="M0 8C0 5.67179 0 4.50769 0.346776 3.57795C0.904266 2.08326 2.08326 0.904266 3.57795 0.346776C4.50769 0 5.67179 0 8 0V0C10.3282 0 11.4923 0 12.4221 0.346776C13.9167 0.904266 15.0957 2.08326 15.6532 3.57795C16 4.50769 16 5.67179 16 8V8C16 10.3282 16 11.4923 15.6532 12.4221C15.0957 13.9167 13.9167 15.0957 12.4221 15.6532C11.4923 16 10.3282 16 8 16V16C5.67179 16 4.50769 16 3.57795 15.6532C2.08326 15.0957 0.904266 13.9167 0.346776 12.4221C0 11.4923 0 10.3282 0 8V8Z" fill="white"/>
</clipPath>
<clipPath id="clip1_94_801">
<rect width="16" height="16" fill="white"/>
</clipPath>
</defs>
</svg>
